<?xml version="1.0" encoding="UTF-8"?>
<svg id="Layer_1" data-name="Layer 1" xmlns="http://www.w3.org/2000/svg" viewBox="0 0 965.58 340.37">
  <defs>
    <style>
      .cls-1 {
        fill: #fff;
      }
    </style>
  </defs>
  <path class="cls-1" d="m137.56,0C96.04,0,62.38,33.65,62.38,75.17s33.66,75.17,75.17,75.17,75.17-33.66,75.17-75.17S179.07,0,137.56,0Zm32.35,63.71h-19.07v43.62h-26.48v-43.62h-19.16v-20.69h64.7v20.69Z"/>
  <polygon class="cls-1" points="307.04 70.98 302.92 83.82 311.4 83.82 307.04 70.98"/>
  <path class="cls-1" d="m309.79,150.34c41.51,0,75.17-33.66,75.17-75.17S351.3,0,309.79,0s-75.17,33.65-75.17,75.17,33.66,75.17,75.17,75.17Zm-13.16-107.33h26.01l.22.57,23.98,63.73h-27.57l-2.66-8.13h-18.72l-2.66,8.13h-22.48l23.88-64.31Z"/>
  <path class="cls-1" d="m481.33,0c-41.52,0-75.17,33.65-75.17,75.17s33.66,75.17,75.17,75.17,75.17-33.66,75.17-75.17S522.84,0,481.33,0Zm2.26,87.29c2.68,0,6.07-1.86,6.84-7.11l.11-.73h21.13l-.1.94c-1.66,15.85-13.54,26.92-28.88,26.92-17.49,0-31.71-14.42-31.71-32.16s14.22-32.15,31.71-32.15c15.33,0,27.21,11.16,28.88,27.14l.1.94h-21.07l-.1-.73c-.73-5.05-3.99-7.32-6.91-7.32-3.33,0-7.21,3.18-7.21,12.12s3.88,12.13,7.21,12.13Z"/>
  <path class="cls-1" d="m654.28,150.34c41.52,0,75.18-33.66,75.18-75.17S695.8,0,654.28,0s-75.17,33.65-75.17,75.17,33.66,75.17,75.17,75.17Zm0-107.33c17.53,0,31.79,14.42,31.79,32.15s-14.26,32.16-31.79,32.16-31.78-14.42-31.78-32.16,14.25-32.15,31.78-32.15Z"/>
  <path class="cls-1" d="m654.28,88.19c5.21,0,6.31-7.08,6.31-13.03s-1.1-12.94-6.31-12.94-6.31,7.04-6.31,12.94,1.1,13.03,6.31,13.03Z"/>
  <path class="cls-1" d="m903.2,75.17c0-41.51-33.66-75.17-75.17-75.17s-75.17,33.65-75.17,75.17,33.66,75.17,75.17,75.17,75.17-33.66,75.17-75.17Zm-74.87,32.16c-17.88,0-30.36-8.74-30.36-21.27v-.85h20.15l.1.72c.7,4.84,6.54,6.14,9.89,6.14,4.29,0,7.28-1.06,7.28-2.58,0-2-4.95-3-10.18-4.07-11.09-2.25-26.27-5.33-26.27-20.83,0-10.72,9.94-21.57,28.95-21.57,16.13,0,27.84,8.44,27.84,20.08v.85h-19.48l-.1-.72c-.81-5.61-5.94-6.22-8.11-6.22-3.12,0-6.46.68-6.46,2.59,0,2.21,4.59,3.33,9.69,4.39,10.05,2.23,26.84,5.96,26.84,21.18,0,13.88-11.13,22.17-29.77,22.17Z"/>
  <path class="cls-1" d="m23.51,204.63H0v68.94h22.95c8.14,0,14.54-3.28,19.2-9.85,4.66-6.57,6.99-14.73,6.99-24.47s-2.31-18.18-6.94-24.75c-4.63-6.57-10.86-9.86-18.69-9.86Zm3.24,40.67c-1.11,1.26-2.9,1.9-5.37,1.9h-.55v-16.2h1.2c4.25,0,6.39,2.66,6.39,7.96,0,2.96-.56,5.08-1.67,6.34Z"/>
  <polygon class="cls-1" points="77.45 299.66 116.41 299.66 116.41 282.36 98.18 282.36 98.18 273.85 110.86 273.85 110.86 256.55 98.18 256.55 98.18 248.03 116.41 248.03 116.41 230.73 77.45 230.73 77.45 299.66"/>
  <polygon class="cls-1" points="166.38 256.82 145.65 256.82 145.65 325.76 184.61 325.76 184.61 308.46 166.38 308.46 166.38 256.82"/>
  <polygon class="cls-1" points="329.89 190.02 308.19 261.29 285.92 191.47 285.46 190.02 220.97 190.02 277.04 339.02 277.55 340.37 326.67 340.37 382.48 190.02 329.89 190.02"/>
  <path class="cls-1" d="m470.67,190.02h-60.81l-55.82,150.34h52.57l6.21-19.01h43.76l6.21,19.01h64.45l-56.05-148.99-.51-1.35Zm-46.11,95.39l9.64-30.01,10.19,30.01h-19.83Z"/>
  <polygon class="cls-1" points="602.23 190.02 540.34 190.02 540.34 340.37 672.4 340.37 672.4 292.18 602.23 292.18 602.23 190.02"/>
  <polygon class="cls-1" points="746.72 190.02 684.83 190.02 684.83 340.37 816.89 340.37 816.89 292.18 746.72 292.18 746.72 190.02"/>
  <polygon class="cls-1" points="965.58 238.39 965.58 190.02 829.32 190.02 829.32 340.37 965.58 340.37 965.58 292.18 891.21 292.18 891.21 281.34 927.4 281.34 927.4 249.23 891.21 249.23 891.21 238.39 965.58 238.39"/>
</svg>